<svg width="512" height="512" viewBox="0 0 512 512" fill="none" xmlns="http://www.w3.org/2000/svg">
<path d="M103.595 380.832C126.83 380.832 145.733 361.929 145.733 338.694C145.733 315.46 126.83 296.557 103.595 296.557C80.3608 296.557 61.4583 315.46 61.4583 338.694C61.4583 361.929 80.3608 380.832 103.595 380.832ZM103.595 311.573C118.55 311.573 130.718 323.74 130.718 338.695C130.718 353.65 118.551 365.818 103.595 365.818C88.6399 365.818 76.4729 353.651 76.4729 338.695C76.4729 323.74 88.6399 311.573 103.595 311.573Z" fill="black"/>
<path d="M412.726 380.832C435.961 380.832 454.864 361.929 454.864 338.694C454.864 315.46 435.961 296.557 412.726 296.557C389.491 296.557 370.589 315.46 370.589 338.694C370.589 361.929 389.491 380.832 412.726 380.832ZM412.726 311.573C427.682 311.573 439.85 323.74 439.85 338.695C439.85 353.65 427.683 365.818 412.726 365.818C397.771 365.818 385.604 353.651 385.604 338.695C385.604 323.74 397.77 311.573 412.726 311.573Z" fill="black"/>
<path d="M246.89 377.862C248.052 378.513 249.312 378.824 250.556 378.824C253.183 378.824 255.733 377.442 257.111 374.988L281.907 330.795C283.216 328.461 283.184 325.607 281.824 323.303C280.464 321 277.999 319.612 275.303 319.614L263.437 319.703L281.906 286.788C283.934 283.172 282.648 278.596 279.032 276.568C275.418 274.541 270.84 275.824 268.811 279.441L244.015 323.635C242.706 325.968 242.738 328.823 244.098 331.126C245.45 333.414 247.909 334.816 250.562 334.816H250.619L262.485 334.727L244.016 367.642C241.987 371.257 243.274 375.833 246.89 377.862Z" fill="black"/>
<path d="M498.113 48.9269H470.342V29.5239H498.113C502.26 29.5239 505.62 26.1626 505.62 22.0165C505.62 17.8705 502.26 14.5092 498.113 14.5092H470.342V7.50735C470.342 3.36129 466.982 0 462.835 0H418.01C403.608 0 391.892 11.7165 391.892 26.1186V31.718H82.5249C40.5388 31.718 6.38037 65.8765 6.38037 107.863V148.089C6.38037 186.921 35.606 219.034 73.2128 223.644C70.7624 235.151 69.2419 245.62 68.328 254.72C60.6044 257.546 53.4374 261.846 47.2764 267.462C36.0264 277.717 28.8524 291.666 27.0746 306.741C24.5732 327.944 24.5732 349.446 27.0736 370.646C28.0966 379.346 30.9064 387.657 35.2957 395.141C25.8064 400.409 19.3681 410.529 19.3681 422.126C19.3681 430.374 22.5832 438.124 28.4139 443.94C34.2406 449.767 41.9882 452.975 50.2283 452.975H56.5765V488.436C56.5765 501.429 67.1468 512 80.1395 512H132.598C145.591 512 156.162 501.43 156.162 488.436V452.975H175.601C179.748 452.975 183.108 449.614 183.108 445.468C183.108 441.322 179.748 437.961 175.601 437.961H50.2283C45.9981 437.961 42.0222 436.313 39.0253 433.317C36.0324 430.331 34.3828 426.356 34.3828 422.125C34.3828 413.393 41.4917 406.29 50.2283 406.29H466.095C470.326 406.29 474.302 407.937 477.293 410.927C480.284 413.918 481.932 417.894 481.932 422.125C481.932 430.857 474.828 437.961 466.096 437.961H205.411C201.264 437.961 197.904 441.322 197.904 445.468C197.904 449.614 201.264 452.975 205.411 452.975H360.161V488.436C360.161 501.429 370.731 512 383.724 512H436.182C449.175 512 459.746 501.43 459.746 488.436V452.975H466.096C483.107 452.975 496.946 439.136 496.946 422.125C496.946 413.885 493.737 406.137 487.912 400.311C485.842 398.242 483.528 396.51 481.039 395.128C485.423 387.646 488.232 379.34 489.254 370.643C491.741 349.442 491.741 327.944 489.253 306.74C487.476 291.664 480.302 277.715 469.051 267.461C462.893 261.848 455.728 257.548 448.008 254.722C445.192 226.692 436.65 185.664 412.662 141.143C409.637 135.547 404.391 131.366 398.26 129.668C391.768 127.881 384.545 126.153 376.793 124.533C372.738 123.684 368.758 126.288 367.908 130.346C367.06 134.405 369.663 138.381 373.722 139.23C382.998 141.17 390.019 142.973 394.265 144.142C396.501 144.762 398.344 146.232 399.449 148.275C420.873 188.034 429.338 224.8 432.508 251.164C431.049 251.016 429.584 250.901 428.111 250.854C424.037 250.723 419.956 250.606 415.877 250.485C413.05 229.382 405.946 196.989 388.162 161.987C387.176 160.048 385.397 158.63 383.286 158.105C370.464 154.907 323.548 144.471 258.164 144.471C192.752 144.471 145.856 154.907 133.04 158.105C130.93 158.631 129.15 160.048 128.166 161.987C110.342 197.065 103.255 229.424 100.45 250.485C96.3724 250.607 92.2924 250.723 88.2185 250.854C86.747 250.901 85.2846 251.016 83.8272 251.163C86.9973 224.775 95.4655 187.992 116.889 148.271C117.989 146.227 119.827 144.762 122.068 144.142C139.501 139.324 187.66 128.117 258.163 128.117C288.035 128.117 317.126 130.139 344.631 134.125C348.735 134.72 352.542 131.876 353.139 127.772C353.733 123.669 350.888 119.86 346.785 119.266C318.57 115.177 288.752 113.103 258.163 113.103C185.822 113.103 136.091 124.688 118.069 129.669C111.932 131.365 106.683 135.551 103.671 141.149C90.6658 165.258 82.2086 188.359 76.7342 208.935C45.7339 206.008 21.3951 179.841 21.3951 148.087V107.861C21.3951 74.1536 48.8179 46.7307 82.5249 46.7307H391.892V52.3302C391.892 66.7323 403.608 78.4488 418.01 78.4488H462.835C466.982 78.4488 470.342 75.0875 470.342 70.9414V63.9386H498.113C502.26 63.9386 505.62 60.5773 505.62 56.4312C505.62 52.2852 502.26 48.9269 498.113 48.9269ZM141.147 488.436C141.147 493.15 137.312 496.985 132.598 496.985H80.1395C75.4259 496.985 71.5912 493.151 71.5912 488.436V452.975H141.147V488.436ZM444.73 488.436C444.73 493.15 440.896 496.985 436.181 496.985H383.723C379.009 496.985 375.174 493.151 375.174 488.436V452.975H444.73V488.436ZM140.012 171.866C155.978 168.122 199.238 159.486 258.163 159.486C317.063 159.486 360.34 168.124 376.313 171.867C391.39 202.527 397.879 230.803 400.656 250.052C305.969 247.499 210.354 247.499 115.667 250.052C118.439 230.782 124.915 202.561 140.012 171.866ZM88.6999 265.861C201.148 262.237 315.18 262.237 427.628 265.861C451.484 266.627 471.567 284.958 474.34 308.495C476.693 328.533 476.693 348.855 474.34 368.893C473.388 376.998 470.404 384.665 465.662 391.276H50.6657C45.9231 384.665 42.9391 376.998 41.9862 368.89C39.6229 348.853 39.6229 328.535 41.9862 308.499C44.7609 284.958 64.8436 266.627 88.6999 265.861ZM455.328 63.4371H418.01C411.888 63.4371 406.906 58.4552 406.906 52.3332V26.1186C406.906 19.9956 411.888 15.0147 418.01 15.0147H455.328V63.4371Z" fill="black"/>
</svg>
